<svg
   version="1.1"
   id="svg6963"
   xml:space="preserve"
  
  
   viewBox="0 0 682.66669 682.66669"
   xmlns="http://www.w3.org/2000/svg"
   xmlns:svg="http://www.w3.org/2000/svg" fill="#14214a"><defs
     id="defs6967"><clipPath
       clipPathUnits="userSpaceOnUse"
       id="clipPath6977"><path
         d="M 0,512 H 512 V 0 H 0 Z"
         id="path6975" /></clipPath></defs><g
     id="g6969"
     transform="matrix(1.3333333,0,0,-1.3333333,0,682.66667)"><g
       id="g6971"><g
         id="g6973"
         clip-path="url(#clipPath6977)"><g
           id="g6979"
           transform="translate(126.9447,372.1666)"><path
             d="m 0,0 c -71.613,-39.404 -119.435,-99.486 -119.435,-116.167 0,-25.44 111.253,-151.854 248.49,-151.854 137.237,0 248.49,126.414 248.49,151.854 0,25.441 -111.253,151.855 -248.49,151.855 -34.275,0 -66.93,-7.884 -96.635,-20.113"
             style="fill:none;stroke:#14214a;stroke-width:15;stroke-linecap:round;stroke-linejoin:round;stroke-miterlimit:10;stroke-dasharray:none;stroke-opacity:1"
             id="path6981" /></g><g
           id="g6983"
           transform="translate(360.6718,322.9664)"><path
             d="m 0,0 c 12.389,-19.324 19.573,-42.307 19.573,-66.967 0,-68.618 -55.626,-124.244 -124.245,-124.244 -68.619,0 -124.245,55.626 -124.245,124.244 0,68.619 55.626,124.245 124.245,124.245 30.879,0 59.127,-11.264 80.859,-29.908"
             style="fill:none;stroke:#14214a;stroke-width:15;stroke-linecap:round;stroke-linejoin:round;stroke-miterlimit:10;stroke-dasharray:none;stroke-opacity:1"
             id="path6985" /></g><g
           id="g6987"
           transform="translate(236.4769,343.8541)"><path
             d="m 0,0 c -18.869,18.869 -49.462,18.869 -68.332,0 -18.869,-18.869 -18.869,-49.462 0,-68.331 C -49.462,-87.2 -18.869,-87.2 0,-68.331 18.869,-49.462 18.869,-18.869 0,0 Z"
             style="fill:none;stroke:#14214a;stroke-width:15;stroke-linecap:round;stroke-linejoin:round;stroke-miterlimit:10;stroke-dasharray:none;stroke-opacity:1"
             id="path6989" /></g><g
           id="g6991"
           transform="translate(255.9999,214.5845)"><path
             d="M 0,0 V -27.609"
             style="fill:none;stroke:#14214a;stroke-width:15;stroke-linecap:round;stroke-linejoin:round;stroke-miterlimit:10;stroke-dasharray:none;stroke-opacity:1"
             id="path6993" /></g><g
           id="g6995"
           transform="translate(235.289,220.1275)"><path
             d="M 0,0 -13.807,-23.915"
             style="fill:none;stroke:#14214a;stroke-width:15;stroke-linecap:round;stroke-linejoin:round;stroke-miterlimit:10;stroke-dasharray:none;stroke-opacity:1"
             id="path6997" /></g><g
           id="g6999"
           transform="translate(220.1273,235.2886)"><path
             d="M 0,0 -23.915,-13.807"
             style="fill:none;stroke:#14214a;stroke-width:15;stroke-linecap:round;stroke-linejoin:round;stroke-miterlimit:10;stroke-dasharray:none;stroke-opacity:1"
             id="path7001" /></g><g
           id="g7003"
           transform="translate(214.5849,255.9996)"><path
             d="M 0,0 H -27.609"
             style="fill:none;stroke:#14214a;stroke-width:15;stroke-linecap:round;stroke-linejoin:round;stroke-miterlimit:10;stroke-dasharray:none;stroke-opacity:1"
             id="path7005" /></g><g
           id="g7007"
           transform="translate(255.9999,297.4146)"><path
             d="M 0,0 V 27.61"
             style="fill:none;stroke:#14214a;stroke-width:15;stroke-linecap:round;stroke-linejoin:round;stroke-miterlimit:10;stroke-dasharray:none;stroke-opacity:1"
             id="path7009" /></g><g
           id="g7011"
           transform="translate(276.7108,291.8726)"><path
             d="M 0,0 13.808,23.915"
             style="fill:none;stroke:#14214a;stroke-width:15;stroke-linecap:round;stroke-linejoin:round;stroke-miterlimit:10;stroke-dasharray:none;stroke-opacity:1"
             id="path7013" /></g><g
           id="g7015"
           transform="translate(291.872,276.7105)"><path
             d="M 0,0 23.915,13.808"
             style="fill:none;stroke:#14214a;stroke-width:15;stroke-linecap:round;stroke-linejoin:round;stroke-miterlimit:10;stroke-dasharray:none;stroke-opacity:1"
             id="path7017" /></g><g
           id="g7019"
           transform="translate(297.4149,255.9996)"><path
             d="M 0,0 H 27.609"
             style="fill:none;stroke:#14214a;stroke-width:15;stroke-linecap:round;stroke-linejoin:round;stroke-miterlimit:10;stroke-dasharray:none;stroke-opacity:1"
             id="path7021" /></g><g
           id="g7023"
           transform="translate(291.872,235.2886)"><path
             d="M 0,0 23.915,-13.807"
             style="fill:none;stroke:#14214a;stroke-width:15;stroke-linecap:round;stroke-linejoin:round;stroke-miterlimit:10;stroke-dasharray:none;stroke-opacity:1"
             id="path7025" /></g><g
           id="g7027"
           transform="translate(276.7108,220.1275)"><path
             d="M 0,0 13.808,-23.915"
             style="fill:none;stroke:#14214a;stroke-width:15;stroke-linecap:round;stroke-linejoin:round;stroke-miterlimit:10;stroke-dasharray:none;stroke-opacity:1"
             id="path7029" /></g><g
           id="g7031"
           transform="translate(188.9091,186.4507)"><path
             d="m 0,0 c -18.215,17.575 -29.544,42.239 -29.544,69.549 0,8.935 1.212,17.587 3.482,25.8"
             style="fill:none;stroke:#14214a;stroke-width:15;stroke-linecap:round;stroke-linejoin:round;stroke-miterlimit:10;stroke-dasharray:none;stroke-opacity:1"
             id="path7033" /></g><g
           id="g7035"
           transform="translate(230.2011,349.1529)"><path
             d="m 0,0 c 8.213,2.27 16.864,3.482 25.799,3.482 53.37,0 96.635,-43.265 96.635,-96.635 0,-53.369 -43.265,-96.635 -96.635,-96.635 -13.342,0 -26.053,2.704 -37.615,7.595"
             style="fill:none;stroke:#14214a;stroke-width:15;stroke-linecap:round;stroke-linejoin:round;stroke-miterlimit:10;stroke-dasharray:none;stroke-opacity:1"
             id="path7037" /></g><g
           id="g7039"
           transform="translate(248.8871,296.8062)"><path
             d="m 0,0 c 2.311,0.399 4.687,0.608 7.113,0.608 22.873,0 41.415,-18.542 41.415,-41.415 0,-22.872 -18.542,-41.414 -41.415,-41.414 -22.873,0 -41.415,18.542 -41.415,41.414 0,2.426 0.209,4.802 0.609,7.114"
             style="fill:none;stroke:#14214a;stroke-width:15;stroke-linecap:round;stroke-linejoin:round;stroke-miterlimit:10;stroke-dasharray:none;stroke-opacity:1"
             id="path7041" /></g><g
           id="g7043"
           transform="translate(40.808,205.98)"><path
             d="m 0,0 c -3.721,16.072 -5.688,32.816 -5.688,50.02 0,17.204 1.967,33.948 5.688,50.02"
             style="fill:none;stroke:#14214a;stroke-width:15;stroke-linecap:round;stroke-linejoin:round;stroke-miterlimit:10;stroke-dasharray:none;stroke-opacity:1"
             id="path7045" /></g><g
           id="g7047"
           transform="translate(471.1923,306.0201)"><path
             d="M 0,0 C 3.721,-16.072 5.687,-32.816 5.687,-50.021 5.687,-67.224 3.721,-83.968 0,-100.04"
             style="fill:none;stroke:#14214a;stroke-width:15;stroke-linecap:round;stroke-linejoin:round;stroke-miterlimit:10;stroke-dasharray:none;stroke-opacity:1"
             id="path7049" /></g><g
           id="g7051"
           transform="translate(35.558,270.024)"><path
             d="m 0,0 27.172,13.586 h 27.61 l 13.805,27.61"
             style="fill:none;stroke:#14214a;stroke-width:15;stroke-linecap:round;stroke-linejoin:round;stroke-miterlimit:10;stroke-dasharray:none;stroke-opacity:1"
             id="path7053" /></g><g
           id="g7055"
           transform="translate(76.535,283.6099)"><path
             d="M 0,0 13.805,-27.61 V -41.415 L 27.61,-55.22"
             style="fill:none;stroke:#14214a;stroke-width:15;stroke-linecap:round;stroke-linejoin:round;stroke-miterlimit:10;stroke-dasharray:none;stroke-opacity:1"
             id="path7057" /></g><g
           id="g7059"
           transform="translate(76.7714,173.2886)"><path
             d="M 0,0 27.374,13.687 H 41.179"
             style="fill:none;stroke:#14214a;stroke-width:15;stroke-linecap:round;stroke-linejoin:round;stroke-miterlimit:10;stroke-dasharray:none;stroke-opacity:1"
             id="path7061" /></g><g
           id="g7063"
           transform="translate(90.3402,180.0728)"><path
             d="M 0,0 V 20.707"
             style="fill:none;stroke:#14214a;stroke-width:15;stroke-linecap:round;stroke-linejoin:round;stroke-miterlimit:10;stroke-dasharray:none;stroke-opacity:1"
             id="path7065" /></g><g
           id="g7067"
           transform="translate(36.7299,229.1949)"><path
             d="M 0,0 26,13 39.805,-14.61"
             style="fill:none;stroke:#14214a;stroke-width:15;stroke-linecap:round;stroke-linejoin:round;stroke-miterlimit:10;stroke-dasharray:none;stroke-opacity:1"
             id="path7069" /></g><g
           id="g7071"
           transform="translate(62.7299,327.0025)"><path
             d="M 0,0 C 0.015,-0.015 13.805,-15.782 13.805,-15.782"
             style="fill:none;stroke:#14214a;stroke-width:15;stroke-linecap:round;stroke-linejoin:round;stroke-miterlimit:10;stroke-dasharray:none;stroke-opacity:1"
             id="path7073" /></g><g
           id="g7075"
           transform="translate(450.3212,326.0767)"><path
             d="m 0,0 -28.661,-28.662 13.805,-27.609 -13.805,-13.806"
             style="fill:none;stroke:#14214a;stroke-width:15;stroke-linecap:round;stroke-linejoin:round;stroke-miterlimit:10;stroke-dasharray:none;stroke-opacity:1"
             id="path7077" /></g><g
           id="g7079"
           transform="translate(421.6601,297.4146)"><path
             d="M 0,0 -13.805,13.806 H -27.61"
             style="fill:none;stroke:#14214a;stroke-width:15;stroke-linecap:round;stroke-linejoin:round;stroke-miterlimit:10;stroke-dasharray:none;stroke-opacity:1"
             id="path7081" /></g><g
           id="g7083"
           transform="translate(476.4794,269.4048)"><path
             d="m 0,0 -27.209,-27.21 v -27.61 h -27.61"
             style="fill:none;stroke:#14214a;stroke-width:15;stroke-linecap:round;stroke-linejoin:round;stroke-miterlimit:10;stroke-dasharray:none;stroke-opacity:1"
             id="path7085" /></g><g
           id="g7087"
           transform="translate(435.2284,173.2886)"><path
             d="M 0,0 -27.373,13.687 -41.179,-0.118 h -13.804"
             style="fill:none;stroke:#14214a;stroke-width:15;stroke-linecap:round;stroke-linejoin:round;stroke-miterlimit:10;stroke-dasharray:none;stroke-opacity:1"
             id="path7089" /></g><g
           id="g7091"
           transform="translate(422.5497,348.3297)"><path
             d="M 0,0 -28.5,-9.5 -56.109,4.306"
             style="fill:none;stroke:#14214a;stroke-width:15;stroke-linecap:round;stroke-linejoin:round;stroke-miterlimit:10;stroke-dasharray:none;stroke-opacity:1"
             id="path7093" /></g></g></g></g></svg>